<svg width="745" height="78" viewBox="0 0 745 78" fill="none" xmlns="http://www.w3.org/2000/svg">
<path d="M1.90735e-06 8C1.90735e-06 3.58172 3.58172 0 8 0H736C740.418 0 744 3.58172 744 8V39H1.90735e-06V8Z" fill="white"/>
<line x1="0.500002" y1="39" x2="0.5" y2="78" stroke="white"/>
<line x1="84.5" y1="39" x2="84.5" y2="78" stroke="white"/>
<line x1="167.5" y1="39" x2="167.5" y2="78" stroke="white"/>
<line x1="252.5" y1="39" x2="252.5" y2="78" stroke="white"/>
<line x1="345.5" y1="39" x2="345.5" y2="78" stroke="white"/>
<line x1="433.5" y1="39" x2="433.5" y2="78" stroke="white"/>
<line y1="-0.5" x2="39" y2="-0.5" transform="matrix(-2.10609e-07 -1 -1 9.07218e-09 84 39)" stroke="#E9D7D7"/>
<line y1="-0.5" x2="39" y2="-0.5" transform="matrix(-2.10609e-07 -1 -1 9.07218e-09 167 39)" stroke="#E9D7D7"/>
<line y1="-0.5" x2="39" y2="-0.5" transform="matrix(-2.10609e-07 -1 -1 9.07218e-09 252 39)" stroke="#E9D7D7"/>
<line y1="-0.5" x2="39" y2="-0.5" transform="matrix(-2.10609e-07 -1 -1 9.07218e-09 345 39)" stroke="#E9D7D7"/>
<line y1="-0.5" x2="39" y2="-0.5" transform="matrix(-2.10609e-07 -1 -1 9.07218e-09 433 39)" stroke="#E9D7D7"/>
<line y1="-0.5" x2="39" y2="-0.5" transform="matrix(-2.10609e-07 -1 -1 9.07218e-09 530 39)" stroke="#E9D7D7"/>
<line y1="-0.5" x2="39" y2="-0.5" transform="matrix(-2.10609e-07 -1 -1 9.07218e-09 617 39)" stroke="#E9D7D7"/>
<line y1="-0.5" x2="39" y2="-0.5" transform="matrix(-2.10609e-07 -1 -1 9.07218e-09 679 39)" stroke="#E9D7D7"/>
<line x1="530.5" y1="39" x2="530.5" y2="78" stroke="white"/>
<line x1="617.5" y1="39" x2="617.5" y2="78" stroke="white"/>
<line x1="679.5" y1="39" x2="679.5" y2="78" stroke="white"/>
<line x1="744.5" y1="39" x2="744.5" y2="78" stroke="white"/>
<path d="M35.877 24.328C36.221 24.328 36.549 24.236 36.861 24.052C37.181 23.86 37.497 23.604 37.809 23.284V18.82C37.809 18.7 37.873 18.64 38.001 18.64H38.661C38.773 18.64 38.829 18.696 38.829 18.808L38.805 24.844C38.805 24.948 38.761 25 38.673 25H37.977C37.889 25 37.845 24.956 37.845 24.868V24.16C37.845 24.12 37.837 24.096 37.821 24.088C37.805 24.08 37.777 24.092 37.737 24.124C37.297 24.5 36.905 24.76 36.561 24.904C36.225 25.048 35.889 25.12 35.553 25.12C35.185 25.12 34.857 25.044 34.569 24.892C34.281 24.74 34.053 24.528 33.885 24.256C33.717 23.976 33.633 23.652 33.633 23.284V18.832C33.633 18.704 33.693 18.64 33.813 18.64H34.485C34.589 18.64 34.641 18.696 34.641 18.808V23.02C34.641 23.412 34.749 23.728 34.965 23.968C35.189 24.208 35.493 24.328 35.877 24.328ZM40.8342 25C40.7782 25 40.7342 24.988 40.7022 24.964C40.6782 24.932 40.6662 24.892 40.6662 24.844V18.796C40.6662 18.692 40.7102 18.64 40.7982 18.64H41.4942C41.5822 18.64 41.6262 18.684 41.6262 18.772V19.552C41.6262 19.6 41.6382 19.628 41.6622 19.636C41.6862 19.644 41.7182 19.628 41.7582 19.588C41.9662 19.34 42.1702 19.14 42.3702 18.988C42.5782 18.828 42.7862 18.712 42.9942 18.64C43.2022 18.56 43.4102 18.52 43.6182 18.52C43.8982 18.52 44.0382 18.572 44.0382 18.676V19.396C44.0382 19.476 44.0022 19.508 43.9302 19.492C43.8582 19.484 43.7742 19.476 43.6782 19.468C43.5902 19.46 43.4942 19.456 43.3902 19.456C43.2142 19.456 43.0262 19.496 42.8262 19.576C42.6262 19.648 42.4382 19.752 42.2622 19.888C42.0942 20.024 41.9542 20.176 41.8422 20.344C41.7302 20.512 41.6742 20.68 41.6742 20.848V24.82C41.6742 24.94 41.6142 25 41.4942 25H40.8342ZM46.2799 24.796C46.2799 24.876 46.2639 24.932 46.2319 24.964C46.1999 24.988 46.1439 25 46.0639 25H45.4399C45.3199 25 45.2599 24.944 45.2599 24.832L45.2719 16.264C45.2719 16.152 45.3199 16.096 45.4159 16.096H46.1359C46.2319 16.096 46.2799 16.148 46.2799 16.252V24.796Z" fill="black"/>
<path d="M118.068 24.232C117.772 24.52 117.448 24.74 117.096 24.892C116.752 25.044 116.364 25.12 115.932 25.12C115.308 25.12 114.816 24.96 114.456 24.64C114.104 24.32 113.928 23.9 113.928 23.38C113.928 22.956 114.048 22.592 114.288 22.288C114.528 21.976 114.884 21.732 115.356 21.556C115.828 21.372 116.408 21.26 117.096 21.22L118.032 21.148C118.08 21.14 118.124 21.124 118.164 21.1C118.204 21.076 118.224 21.032 118.224 20.968V20.644C118.224 20.212 118.088 19.872 117.816 19.624C117.552 19.368 117.192 19.24 116.736 19.24C116.384 19.24 116.064 19.32 115.776 19.48C115.496 19.64 115.244 19.88 115.02 20.2C114.988 20.24 114.96 20.268 114.936 20.284C114.92 20.292 114.888 20.288 114.84 20.272L114.192 20.056C114.168 20.04 114.148 20.02 114.132 19.996C114.124 19.972 114.136 19.928 114.168 19.864C114.408 19.448 114.744 19.12 115.176 18.88C115.616 18.64 116.152 18.52 116.784 18.52C117.32 18.52 117.764 18.604 118.116 18.772C118.476 18.932 118.744 19.168 118.92 19.48C119.104 19.784 119.196 20.148 119.196 20.572V24.82C119.196 24.892 119.184 24.94 119.16 24.964C119.136 24.988 119.096 25 119.04 25H118.428C118.372 25 118.332 24.984 118.308 24.952C118.284 24.912 118.268 24.864 118.26 24.808L118.248 24.256C118.224 24.144 118.164 24.136 118.068 24.232ZM118.224 21.952C118.224 21.816 118.168 21.752 118.056 21.76L117.264 21.832C116.896 21.848 116.568 21.896 116.28 21.976C115.992 22.048 115.748 22.144 115.548 22.264C115.348 22.384 115.196 22.528 115.092 22.696C114.988 22.856 114.936 23.044 114.936 23.26C114.936 23.612 115.056 23.888 115.296 24.088C115.544 24.28 115.876 24.376 116.292 24.376C116.548 24.376 116.792 24.332 117.024 24.244C117.264 24.148 117.472 24.028 117.648 23.884C117.832 23.732 117.972 23.576 118.068 23.416C118.172 23.256 118.224 23.1 118.224 22.948V21.952ZM122.003 24.796C122.003 24.876 121.987 24.932 121.955 24.964C121.923 24.988 121.867 25 121.787 25H121.163C121.043 25 120.983 24.944 120.983 24.832L120.995 16.264C120.995 16.152 121.043 16.096 121.139 16.096H121.859C121.955 16.096 122.003 16.148 122.003 16.252V24.796ZM124.862 24.796C124.862 24.876 124.846 24.932 124.814 24.964C124.79 24.988 124.734 25 124.646 25H124.034C123.962 25 123.914 24.988 123.89 24.964C123.866 24.94 123.854 24.896 123.854 24.832V18.808C123.854 18.696 123.902 18.64 123.998 18.64H124.73C124.818 18.64 124.862 18.692 124.862 18.796V24.796ZM124.91 17.272C124.91 17.424 124.838 17.5 124.694 17.5H123.998C123.926 17.5 123.878 17.484 123.854 17.452C123.83 17.412 123.818 17.36 123.818 17.296V16.288C123.818 16.16 123.874 16.096 123.986 16.096H124.742C124.854 16.096 124.91 16.156 124.91 16.276V17.272ZM130.385 24.232C130.089 24.52 129.765 24.74 129.413 24.892C129.069 25.044 128.681 25.12 128.249 25.12C127.625 25.12 127.133 24.96 126.773 24.64C126.421 24.32 126.245 23.9 126.245 23.38C126.245 22.956 126.365 22.592 126.605 22.288C126.845 21.976 127.201 21.732 127.673 21.556C128.145 21.372 128.725 21.26 129.413 21.22L130.349 21.148C130.397 21.14 130.441 21.124 130.481 21.1C130.521 21.076 130.541 21.032 130.541 20.968V20.644C130.541 20.212 130.405 19.872 130.133 19.624C129.869 19.368 129.509 19.24 129.053 19.24C128.701 19.24 128.381 19.32 128.093 19.48C127.813 19.64 127.561 19.88 127.337 20.2C127.305 20.24 127.277 20.268 127.253 20.284C127.237 20.292 127.205 20.288 127.157 20.272L126.509 20.056C126.485 20.04 126.465 20.02 126.449 19.996C126.441 19.972 126.453 19.928 126.485 19.864C126.725 19.448 127.061 19.12 127.493 18.88C127.933 18.64 128.469 18.52 129.101 18.52C129.637 18.52 130.081 18.604 130.433 18.772C130.793 18.932 131.061 19.168 131.237 19.48C131.421 19.784 131.513 20.148 131.513 20.572V24.82C131.513 24.892 131.501 24.94 131.477 24.964C131.453 24.988 131.413 25 131.357 25H130.745C130.689 25 130.649 24.984 130.625 24.952C130.601 24.912 130.585 24.864 130.577 24.808L130.565 24.256C130.541 24.144 130.481 24.136 130.385 24.232ZM130.541 21.952C130.541 21.816 130.485 21.752 130.373 21.76L129.581 21.832C129.213 21.848 128.885 21.896 128.597 21.976C128.309 22.048 128.065 22.144 127.865 22.264C127.665 22.384 127.513 22.528 127.409 22.696C127.305 22.856 127.253 23.044 127.253 23.26C127.253 23.612 127.373 23.888 127.613 24.088C127.861 24.28 128.193 24.376 128.609 24.376C128.865 24.376 129.109 24.332 129.341 24.244C129.581 24.148 129.789 24.028 129.965 23.884C130.149 23.732 130.289 23.576 130.385 23.416C130.489 23.256 130.541 23.1 130.541 22.948V21.952ZM137.115 20.044C136.955 19.804 136.731 19.608 136.443 19.456C136.155 19.304 135.811 19.228 135.411 19.228C134.979 19.228 134.619 19.32 134.331 19.504C134.051 19.688 133.911 19.936 133.911 20.248C133.911 20.416 133.975 20.576 134.103 20.728C134.231 20.872 134.491 21.008 134.883 21.136L136.407 21.592C136.959 21.744 137.355 21.964 137.595 22.252C137.843 22.54 137.967 22.872 137.967 23.248C137.967 23.624 137.855 23.952 137.631 24.232C137.407 24.512 137.099 24.732 136.707 24.892C136.315 25.044 135.871 25.12 135.375 25.12C134.743 25.12 134.191 24.996 133.719 24.748C133.247 24.492 132.911 24.176 132.711 23.8C132.687 23.76 132.675 23.724 132.675 23.692C132.675 23.66 132.695 23.632 132.735 23.608L133.203 23.344C133.243 23.32 133.279 23.312 133.311 23.32C133.343 23.32 133.367 23.332 133.383 23.356C133.519 23.564 133.675 23.744 133.851 23.896C134.035 24.048 134.251 24.168 134.499 24.256C134.755 24.344 135.051 24.388 135.387 24.388C135.691 24.38 135.967 24.336 136.215 24.256C136.463 24.176 136.659 24.06 136.803 23.908C136.947 23.748 137.019 23.564 137.019 23.356C137.019 23.14 136.931 22.956 136.755 22.804C136.579 22.644 136.275 22.504 135.843 22.384L134.607 22.036C134.007 21.876 133.583 21.66 133.335 21.388C133.095 21.116 132.971 20.796 132.963 20.428C132.963 20.044 133.067 19.712 133.275 19.432C133.483 19.144 133.771 18.92 134.139 18.76C134.515 18.6 134.943 18.52 135.423 18.52C135.959 18.52 136.435 18.624 136.851 18.832C137.275 19.032 137.595 19.3 137.811 19.636C137.835 19.668 137.847 19.7 137.847 19.732C137.847 19.756 137.831 19.78 137.799 19.804L137.295 20.08C137.263 20.096 137.231 20.104 137.199 20.104C137.175 20.096 137.147 20.076 137.115 20.044Z" fill="black"/>
<path d="M201.606 19.396C201.542 19.396 201.51 19.428 201.51 19.492V23.296C201.51 23.672 201.574 23.924 201.702 24.052C201.83 24.18 202.022 24.244 202.278 24.244H203.106C203.146 24.244 203.178 24.256 203.202 24.28C203.226 24.296 203.238 24.328 203.238 24.376L203.226 24.784C203.226 24.864 203.178 24.916 203.082 24.94C203.002 24.956 202.886 24.968 202.734 24.976C202.59 24.984 202.446 24.992 202.302 25C202.166 25 202.05 25 201.954 25C201.45 25 201.082 24.884 200.85 24.652C200.618 24.412 200.502 24.036 200.502 23.524V19.516C200.502 19.436 200.462 19.396 200.382 19.396H199.422C199.334 19.396 199.29 19.352 199.29 19.264V18.76C199.29 18.68 199.33 18.64 199.41 18.64H200.43C200.486 18.64 200.514 18.608 200.514 18.544L200.646 16.636C200.654 16.532 200.698 16.48 200.778 16.48H201.378C201.474 16.48 201.522 16.536 201.522 16.648V18.544C201.522 18.608 201.554 18.64 201.618 18.64H203.13C203.218 18.64 203.262 18.676 203.262 18.748V19.264C203.262 19.352 203.218 19.396 203.13 19.396H201.606ZM205.575 24.796C205.575 24.876 205.559 24.932 205.527 24.964C205.503 24.988 205.447 25 205.359 25H204.747C204.675 25 204.627 24.988 204.603 24.964C204.579 24.94 204.567 24.896 204.567 24.832V18.808C204.567 18.696 204.615 18.64 204.711 18.64H205.443C205.531 18.64 205.575 18.692 205.575 18.796V24.796ZM205.623 17.272C205.623 17.424 205.551 17.5 205.407 17.5H204.711C204.639 17.5 204.591 17.484 204.567 17.452C204.543 17.412 204.531 17.36 204.531 17.296V16.288C204.531 16.16 204.587 16.096 204.699 16.096H205.455C205.567 16.096 205.623 16.156 205.623 16.276V17.272ZM209.118 19.396C209.054 19.396 209.022 19.428 209.022 19.492V23.296C209.022 23.672 209.086 23.924 209.214 24.052C209.342 24.18 209.534 24.244 209.79 24.244H210.618C210.658 24.244 210.69 24.256 210.714 24.28C210.738 24.296 210.75 24.328 210.75 24.376L210.738 24.784C210.738 24.864 210.69 24.916 210.594 24.94C210.514 24.956 210.398 24.968 210.246 24.976C210.102 24.984 209.958 24.992 209.814 25C209.678 25 209.562 25 209.466 25C208.962 25 208.594 24.884 208.362 24.652C208.13 24.412 208.014 24.036 208.014 23.524V19.516C208.014 19.436 207.974 19.396 207.894 19.396H206.934C206.846 19.396 206.802 19.352 206.802 19.264V18.76C206.802 18.68 206.842 18.64 206.922 18.64H207.942C207.998 18.64 208.026 18.608 208.026 18.544L208.158 16.636C208.166 16.532 208.21 16.48 208.29 16.48H208.89C208.986 16.48 209.034 16.536 209.034 16.648V18.544C209.034 18.608 209.066 18.64 209.13 18.64H210.642C210.73 18.64 210.774 18.676 210.774 18.748V19.264C210.774 19.352 210.73 19.396 210.642 19.396H209.118ZM213.098 24.796C213.098 24.876 213.082 24.932 213.05 24.964C213.018 24.988 212.962 25 212.882 25H212.258C212.138 25 212.078 24.944 212.078 24.832L212.09 16.264C212.09 16.152 212.138 16.096 212.234 16.096H212.954C213.05 16.096 213.098 16.148 213.098 16.252V24.796ZM215.621 22.216C215.621 22.608 215.713 22.968 215.897 23.296C216.089 23.616 216.341 23.872 216.653 24.064C216.973 24.256 217.329 24.352 217.721 24.352C218.121 24.352 218.477 24.272 218.789 24.112C219.101 23.944 219.369 23.692 219.593 23.356C219.625 23.324 219.649 23.308 219.665 23.308C219.689 23.3 219.721 23.304 219.761 23.32L220.265 23.572C220.337 23.612 220.345 23.668 220.289 23.74C220.073 24.06 219.833 24.324 219.569 24.532C219.313 24.732 219.025 24.88 218.705 24.976C218.385 25.072 218.025 25.12 217.625 25.12C217.033 25.12 216.509 24.984 216.053 24.712C215.597 24.44 215.237 24.06 214.973 23.572C214.709 23.084 214.577 22.52 214.577 21.88C214.577 21.184 214.709 20.588 214.973 20.092C215.245 19.588 215.609 19.2 216.065 18.928C216.529 18.656 217.045 18.52 217.613 18.52C218.197 18.52 218.705 18.648 219.137 18.904C219.569 19.16 219.905 19.532 220.145 20.02C220.385 20.508 220.505 21.096 220.505 21.784C220.505 21.84 220.497 21.896 220.481 21.952C220.473 22.008 220.421 22.036 220.325 22.036H215.729C215.697 22.036 215.669 22.056 215.645 22.096C215.629 22.128 215.621 22.168 215.621 22.216ZM219.293 21.376C219.381 21.376 219.437 21.368 219.461 21.352C219.485 21.328 219.497 21.28 219.497 21.208C219.497 20.864 219.421 20.544 219.269 20.248C219.125 19.944 218.913 19.7 218.633 19.516C218.361 19.332 218.029 19.24 217.637 19.24C217.205 19.24 216.841 19.344 216.545 19.552C216.249 19.752 216.025 20.016 215.873 20.344C215.721 20.672 215.645 21.016 215.645 21.376H219.293Z" fill="black"/>
<path d="M284.6 25C284.544 25 284.5 24.988 284.468 24.964C284.444 24.932 284.432 24.888 284.432 24.832V24.328C284.432 24.264 284.416 24.228 284.384 24.22C284.36 24.212 284.324 24.232 284.276 24.28C284.188 24.36 284.06 24.468 283.892 24.604C283.732 24.74 283.528 24.86 283.28 24.964C283.032 25.068 282.736 25.12 282.392 25.12C281.888 25.12 281.436 25 281.036 24.76C280.636 24.52 280.316 24.164 280.076 23.692C279.844 23.212 279.728 22.62 279.728 21.916C279.728 21.236 279.844 20.644 280.076 20.14C280.316 19.628 280.648 19.232 281.072 18.952C281.504 18.664 281.992 18.52 282.536 18.52C282.928 18.52 283.256 18.584 283.52 18.712C283.784 18.84 284.016 18.988 284.216 19.156C284.288 19.212 284.336 19.236 284.36 19.228C284.392 19.212 284.408 19.16 284.408 19.072V16.252C284.408 16.148 284.452 16.096 284.54 16.096H285.272C285.36 16.096 285.404 16.148 285.404 16.252V24.808C285.404 24.88 285.392 24.932 285.368 24.964C285.344 24.988 285.292 25 285.212 25H284.6ZM284.396 20.044C284.148 19.796 283.896 19.604 283.64 19.468C283.384 19.332 283.096 19.264 282.776 19.264C282.392 19.264 282.044 19.364 281.732 19.564C281.428 19.756 281.188 20.048 281.012 20.44C280.844 20.832 280.76 21.312 280.76 21.88C280.76 22.464 280.848 22.944 281.024 23.32C281.2 23.688 281.436 23.96 281.732 24.136C282.028 24.304 282.352 24.388 282.704 24.388C283.032 24.388 283.32 24.312 283.568 24.16C283.824 24.008 284.024 23.82 284.168 23.596C284.32 23.372 284.396 23.152 284.396 22.936V20.044ZM289.924 25.12C289.324 25.12 288.792 24.984 288.328 24.712C287.872 24.432 287.516 24.048 287.26 23.56C287.012 23.064 286.888 22.496 286.888 21.856C286.888 21.192 287.016 20.612 287.272 20.116C287.536 19.612 287.896 19.22 288.352 18.94C288.808 18.66 289.336 18.52 289.936 18.52C290.544 18.52 291.072 18.664 291.52 18.952C291.976 19.232 292.328 19.624 292.576 20.128C292.832 20.624 292.96 21.196 292.96 21.844C292.96 22.484 292.832 23.052 292.576 23.548C292.32 24.036 291.964 24.42 291.508 24.7C291.06 24.98 290.532 25.12 289.924 25.12ZM289.948 24.364C290.364 24.364 290.72 24.264 291.016 24.064C291.312 23.856 291.536 23.564 291.688 23.188C291.848 22.804 291.928 22.348 291.928 21.82C291.928 21.292 291.848 20.84 291.688 20.464C291.528 20.08 291.3 19.784 291.004 19.576C290.708 19.368 290.352 19.264 289.936 19.264C289.528 19.264 289.172 19.368 288.868 19.576C288.564 19.784 288.328 20.08 288.16 20.464C288 20.84 287.92 21.292 287.92 21.82C287.92 22.34 288 22.792 288.16 23.176C288.328 23.56 288.564 23.856 288.868 24.064C289.172 24.264 289.532 24.364 289.948 24.364ZM294.612 25C294.5 25 294.444 24.948 294.444 24.844V18.796C294.444 18.692 294.488 18.64 294.576 18.64H295.296C295.376 18.64 295.416 18.684 295.416 18.772V19.468C295.416 19.508 295.424 19.532 295.44 19.54C295.464 19.548 295.496 19.536 295.536 19.504C295.792 19.296 296.028 19.12 296.244 18.976C296.468 18.824 296.692 18.712 296.916 18.64C297.148 18.56 297.396 18.52 297.66 18.52C298.132 18.52 298.508 18.628 298.788 18.844C299.076 19.06 299.268 19.304 299.364 19.576C299.38 19.608 299.404 19.62 299.436 19.612C299.468 19.604 299.5 19.584 299.532 19.552C299.788 19.336 300.028 19.152 300.252 19C300.484 18.848 300.716 18.732 300.948 18.652C301.188 18.564 301.44 18.52 301.704 18.52C302.288 18.52 302.74 18.688 303.06 19.024C303.38 19.352 303.54 19.796 303.54 20.356V24.808C303.54 24.936 303.48 25 303.36 25H302.688C302.632 25 302.592 24.988 302.568 24.964C302.544 24.932 302.532 24.892 302.532 24.844V20.56C302.532 20.168 302.436 19.864 302.244 19.648C302.06 19.424 301.768 19.312 301.368 19.312C301.136 19.312 300.912 19.356 300.696 19.444C300.488 19.532 300.296 19.64 300.12 19.768C299.952 19.896 299.8 20.016 299.664 20.128C299.6 20.184 299.556 20.24 299.532 20.296C299.508 20.344 299.496 20.408 299.496 20.488V24.808C299.496 24.936 299.436 25 299.316 25H298.644C298.596 25 298.556 24.988 298.524 24.964C298.5 24.932 298.488 24.892 298.488 24.844V20.56C298.488 20.168 298.396 19.864 298.212 19.648C298.028 19.424 297.736 19.312 297.336 19.312C297 19.312 296.692 19.392 296.412 19.552C296.132 19.712 295.812 19.956 295.452 20.284V24.82C295.452 24.94 295.392 25 295.272 25H294.612ZM308.979 24.232C308.683 24.52 308.359 24.74 308.007 24.892C307.663 25.044 307.275 25.12 306.843 25.12C306.219 25.12 305.727 24.96 305.367 24.64C305.015 24.32 304.839 23.9 304.839 23.38C304.839 22.956 304.959 22.592 305.199 22.288C305.439 21.976 305.795 21.732 306.267 21.556C306.739 21.372 307.319 21.26 308.007 21.22L308.943 21.148C308.991 21.14 309.035 21.124 309.075 21.1C309.115 21.076 309.135 21.032 309.135 20.968V20.644C309.135 20.212 308.999 19.872 308.727 19.624C308.463 19.368 308.103 19.24 307.647 19.24C307.295 19.24 306.975 19.32 306.687 19.48C306.407 19.64 306.155 19.88 305.931 20.2C305.899 20.24 305.871 20.268 305.847 20.284C305.831 20.292 305.799 20.288 305.751 20.272L305.103 20.056C305.079 20.04 305.059 20.02 305.043 19.996C305.035 19.972 305.047 19.928 305.079 19.864C305.319 19.448 305.655 19.12 306.087 18.88C306.527 18.64 307.063 18.52 307.695 18.52C308.231 18.52 308.675 18.604 309.027 18.772C309.387 18.932 309.655 19.168 309.831 19.48C310.015 19.784 310.107 20.148 310.107 20.572V24.82C310.107 24.892 310.095 24.94 310.071 24.964C310.047 24.988 310.007 25 309.951 25H309.339C309.283 25 309.243 24.984 309.219 24.952C309.195 24.912 309.179 24.864 309.171 24.808L309.159 24.256C309.135 24.144 309.075 24.136 308.979 24.232ZM309.135 21.952C309.135 21.816 309.079 21.752 308.967 21.76L308.175 21.832C307.807 21.848 307.479 21.896 307.191 21.976C306.903 22.048 306.659 22.144 306.459 22.264C306.259 22.384 306.107 22.528 306.003 22.696C305.899 22.856 305.847 23.044 305.847 23.26C305.847 23.612 305.967 23.888 306.207 24.088C306.455 24.28 306.787 24.376 307.203 24.376C307.459 24.376 307.703 24.332 307.935 24.244C308.175 24.148 308.383 24.028 308.559 23.884C308.743 23.732 308.883 23.576 308.979 23.416C309.083 23.256 309.135 23.1 309.135 22.948V21.952ZM312.901 24.796C312.901 24.876 312.885 24.932 312.853 24.964C312.829 24.988 312.773 25 312.685 25H312.073C312.001 25 311.953 24.988 311.929 24.964C311.905 24.94 311.893 24.896 311.893 24.832V18.808C311.893 18.696 311.941 18.64 312.037 18.64H312.769C312.857 18.64 312.901 18.692 312.901 18.796V24.796ZM312.949 17.272C312.949 17.424 312.877 17.5 312.733 17.5H312.037C311.965 17.5 311.917 17.484 311.893 17.452C311.869 17.412 311.857 17.36 311.857 17.296V16.288C311.857 16.16 311.913 16.096 312.025 16.096H312.781C312.893 16.096 312.949 16.156 312.949 16.276V17.272ZM314.932 25C314.82 25 314.764 24.948 314.764 24.844V18.796C314.764 18.692 314.808 18.64 314.896 18.64H315.616C315.704 18.64 315.748 18.684 315.748 18.772V19.468C315.748 19.508 315.756 19.532 315.772 19.54C315.788 19.548 315.816 19.536 315.856 19.504C316.12 19.296 316.364 19.12 316.588 18.976C316.82 18.824 317.056 18.712 317.296 18.64C317.536 18.56 317.792 18.52 318.064 18.52C318.688 18.52 319.164 18.688 319.492 19.024C319.828 19.36 319.996 19.796 319.996 20.332V24.808C319.996 24.936 319.936 25 319.816 25H319.144C319.088 25 319.048 24.988 319.024 24.964C319 24.932 318.988 24.892 318.988 24.844V20.56C318.988 20.168 318.888 19.864 318.688 19.648C318.488 19.424 318.172 19.312 317.74 19.312C317.508 19.312 317.288 19.352 317.08 19.432C316.88 19.504 316.676 19.612 316.468 19.756C316.26 19.892 316.028 20.068 315.772 20.284V24.82C315.772 24.94 315.712 25 315.592 25H314.932Z" fill="black"/>
<path d="M372.185 20.044C372.025 19.804 371.801 19.608 371.513 19.456C371.225 19.304 370.881 19.228 370.481 19.228C370.049 19.228 369.689 19.32 369.401 19.504C369.121 19.688 368.981 19.936 368.981 20.248C368.981 20.416 369.045 20.576 369.173 20.728C369.301 20.872 369.561 21.008 369.953 21.136L371.477 21.592C372.029 21.744 372.425 21.964 372.665 22.252C372.913 22.54 373.037 22.872 373.037 23.248C373.037 23.624 372.925 23.952 372.701 24.232C372.477 24.512 372.169 24.732 371.777 24.892C371.385 25.044 370.941 25.12 370.445 25.12C369.813 25.12 369.261 24.996 368.789 24.748C368.317 24.492 367.981 24.176 367.781 23.8C367.757 23.76 367.745 23.724 367.745 23.692C367.745 23.66 367.765 23.632 367.805 23.608L368.273 23.344C368.313 23.32 368.349 23.312 368.381 23.32C368.413 23.32 368.437 23.332 368.453 23.356C368.589 23.564 368.745 23.744 368.921 23.896C369.105 24.048 369.321 24.168 369.569 24.256C369.825 24.344 370.121 24.388 370.457 24.388C370.761 24.38 371.037 24.336 371.285 24.256C371.533 24.176 371.729 24.06 371.873 23.908C372.017 23.748 372.089 23.564 372.089 23.356C372.089 23.14 372.001 22.956 371.825 22.804C371.649 22.644 371.345 22.504 370.913 22.384L369.677 22.036C369.077 21.876 368.653 21.66 368.405 21.388C368.165 21.116 368.041 20.796 368.033 20.428C368.033 20.044 368.137 19.712 368.345 19.432C368.553 19.144 368.841 18.92 369.209 18.76C369.585 18.6 370.013 18.52 370.493 18.52C371.029 18.52 371.505 18.624 371.921 18.832C372.345 19.032 372.665 19.3 372.881 19.636C372.905 19.668 372.917 19.7 372.917 19.732C372.917 19.756 372.901 19.78 372.869 19.804L372.365 20.08C372.333 20.096 372.301 20.104 372.269 20.104C372.245 20.096 372.217 20.076 372.185 20.044ZM377.174 25.12C376.574 25.12 376.042 24.984 375.578 24.712C375.122 24.432 374.766 24.048 374.51 23.56C374.262 23.064 374.138 22.496 374.138 21.856C374.138 21.192 374.266 20.612 374.522 20.116C374.786 19.612 375.146 19.22 375.602 18.94C376.058 18.66 376.586 18.52 377.186 18.52C377.794 18.52 378.322 18.664 378.77 18.952C379.226 19.232 379.578 19.624 379.826 20.128C380.082 20.624 380.21 21.196 380.21 21.844C380.21 22.484 380.082 23.052 379.826 23.548C379.57 24.036 379.214 24.42 378.758 24.7C378.31 24.98 377.782 25.12 377.174 25.12ZM377.198 24.364C377.614 24.364 377.97 24.264 378.266 24.064C378.562 23.856 378.786 23.564 378.938 23.188C379.098 22.804 379.178 22.348 379.178 21.82C379.178 21.292 379.098 20.84 378.938 20.464C378.778 20.08 378.55 19.784 378.254 19.576C377.958 19.368 377.602 19.264 377.186 19.264C376.778 19.264 376.422 19.368 376.118 19.576C375.814 19.784 375.578 20.08 375.41 20.464C375.25 20.84 375.17 21.292 375.17 21.82C375.17 22.34 375.25 22.792 375.41 23.176C375.578 23.56 375.814 23.856 376.118 24.064C376.422 24.264 376.782 24.364 377.198 24.364ZM383.854 24.328C384.198 24.328 384.526 24.236 384.838 24.052C385.158 23.86 385.474 23.604 385.786 23.284V18.82C385.786 18.7 385.85 18.64 385.978 18.64H386.638C386.75 18.64 386.806 18.696 386.806 18.808L386.782 24.844C386.782 24.948 386.738 25 386.65 25H385.954C385.866 25 385.822 24.956 385.822 24.868V24.16C385.822 24.12 385.814 24.096 385.798 24.088C385.782 24.08 385.754 24.092 385.714 24.124C385.274 24.5 384.882 24.76 384.538 24.904C384.202 25.048 383.866 25.12 383.53 25.12C383.162 25.12 382.834 25.044 382.546 24.892C382.258 24.74 382.03 24.528 381.862 24.256C381.694 23.976 381.61 23.652 381.61 23.284V18.832C381.61 18.704 381.67 18.64 381.79 18.64H382.462C382.566 18.64 382.618 18.696 382.618 18.808V23.02C382.618 23.412 382.726 23.728 382.942 23.968C383.166 24.208 383.47 24.328 383.854 24.328ZM388.811 25C388.755 25 388.711 24.988 388.679 24.964C388.655 24.932 388.643 24.892 388.643 24.844V18.796C388.643 18.692 388.687 18.64 388.775 18.64H389.471C389.559 18.64 389.603 18.684 389.603 18.772V19.552C389.603 19.6 389.615 19.628 389.639 19.636C389.663 19.644 389.695 19.628 389.735 19.588C389.943 19.34 390.147 19.14 390.347 18.988C390.555 18.828 390.763 18.712 390.971 18.64C391.179 18.56 391.387 18.52 391.595 18.52C391.875 18.52 392.015 18.572 392.015 18.676V19.396C392.015 19.476 391.979 19.508 391.907 19.492C391.835 19.484 391.751 19.476 391.655 19.468C391.567 19.46 391.471 19.456 391.367 19.456C391.191 19.456 391.003 19.496 390.803 19.576C390.603 19.648 390.415 19.752 390.239 19.888C390.071 20.024 389.931 20.176 389.819 20.344C389.707 20.512 389.651 20.68 389.651 20.848V24.82C389.651 24.94 389.591 25 389.471 25H388.811ZM395.724 18.52C396.14 18.52 396.504 18.588 396.816 18.724C397.136 18.852 397.408 19.032 397.632 19.264C397.864 19.488 398.056 19.736 398.208 20.008C398.256 20.104 398.236 20.164 398.148 20.188L397.488 20.344C397.432 20.368 397.38 20.344 397.332 20.272C397.172 20.04 397.012 19.852 396.852 19.708C396.7 19.564 396.536 19.456 396.36 19.384C396.184 19.304 395.992 19.264 395.784 19.264C395.376 19.264 395.016 19.368 394.704 19.576C394.4 19.776 394.164 20.068 393.996 20.452C393.828 20.836 393.744 21.292 393.744 21.82C393.744 22.356 393.828 22.816 393.996 23.2C394.172 23.584 394.412 23.876 394.716 24.076C395.028 24.276 395.392 24.376 395.808 24.376C396.192 24.376 396.524 24.28 396.804 24.088C397.084 23.896 397.34 23.616 397.572 23.248C397.596 23.208 397.616 23.188 397.632 23.188C397.656 23.18 397.688 23.184 397.728 23.2L398.244 23.392C398.3 23.416 398.316 23.468 398.292 23.548C398.172 23.756 398.032 23.956 397.872 24.148C397.712 24.34 397.524 24.508 397.308 24.652C397.1 24.796 396.864 24.912 396.6 25C396.336 25.08 396.044 25.12 395.724 25.12C395.132 25.12 394.608 24.984 394.152 24.712C393.704 24.432 393.352 24.048 393.096 23.56C392.84 23.064 392.712 22.492 392.712 21.844C392.712 21.188 392.84 20.612 393.096 20.116C393.36 19.62 393.716 19.232 394.164 18.952C394.62 18.664 395.14 18.52 395.724 18.52ZM400.178 22.216C400.178 22.608 400.27 22.968 400.454 23.296C400.646 23.616 400.898 23.872 401.21 24.064C401.53 24.256 401.886 24.352 402.278 24.352C402.678 24.352 403.034 24.272 403.346 24.112C403.658 23.944 403.926 23.692 404.15 23.356C404.182 23.324 404.206 23.308 404.222 23.308C404.246 23.3 404.278 23.304 404.318 23.32L404.822 23.572C404.894 23.612 404.902 23.668 404.846 23.74C404.63 24.06 404.39 24.324 404.126 24.532C403.87 24.732 403.582 24.88 403.262 24.976C402.942 25.072 402.582 25.12 402.182 25.12C401.59 25.12 401.066 24.984 400.61 24.712C400.154 24.44 399.794 24.06 399.53 23.572C399.266 23.084 399.134 22.52 399.134 21.88C399.134 21.184 399.266 20.588 399.53 20.092C399.802 19.588 400.166 19.2 400.622 18.928C401.086 18.656 401.602 18.52 402.17 18.52C402.754 18.52 403.262 18.648 403.694 18.904C404.126 19.16 404.462 19.532 404.702 20.02C404.942 20.508 405.062 21.096 405.062 21.784C405.062 21.84 405.054 21.896 405.038 21.952C405.03 22.008 404.978 22.036 404.882 22.036H400.286C400.254 22.036 400.226 22.056 400.202 22.096C400.186 22.128 400.178 22.168 400.178 22.216ZM403.85 21.376C403.938 21.376 403.994 21.368 404.018 21.352C404.042 21.328 404.054 21.28 404.054 21.208C404.054 20.864 403.978 20.544 403.826 20.248C403.682 19.944 403.47 19.7 403.19 19.516C402.918 19.332 402.586 19.24 402.194 19.24C401.762 19.24 401.398 19.344 401.102 19.552C400.806 19.752 400.582 20.016 400.43 20.344C400.278 20.672 400.202 21.016 400.202 21.376H403.85Z" fill="black"/>
<path d="M458.671 18.52C459.087 18.52 459.451 18.588 459.763 18.724C460.083 18.852 460.355 19.032 460.579 19.264C460.811 19.488 461.003 19.736 461.155 20.008C461.203 20.104 461.183 20.164 461.095 20.188L460.435 20.344C460.379 20.368 460.327 20.344 460.279 20.272C460.119 20.04 459.959 19.852 459.799 19.708C459.647 19.564 459.483 19.456 459.307 19.384C459.131 19.304 458.939 19.264 458.731 19.264C458.323 19.264 457.963 19.368 457.651 19.576C457.347 19.776 457.111 20.068 456.943 20.452C456.775 20.836 456.691 21.292 456.691 21.82C456.691 22.356 456.775 22.816 456.943 23.2C457.119 23.584 457.359 23.876 457.663 24.076C457.975 24.276 458.339 24.376 458.755 24.376C459.139 24.376 459.471 24.28 459.751 24.088C460.031 23.896 460.287 23.616 460.519 23.248C460.543 23.208 460.563 23.188 460.579 23.188C460.603 23.18 460.635 23.184 460.675 23.2L461.191 23.392C461.247 23.416 461.263 23.468 461.239 23.548C461.119 23.756 460.979 23.956 460.819 24.148C460.659 24.34 460.471 24.508 460.255 24.652C460.047 24.796 459.811 24.912 459.547 25C459.283 25.08 458.991 25.12 458.671 25.12C458.079 25.12 457.555 24.984 457.099 24.712C456.651 24.432 456.299 24.048 456.043 23.56C455.787 23.064 455.659 22.492 455.659 21.844C455.659 21.188 455.787 20.612 456.043 20.116C456.307 19.62 456.663 19.232 457.111 18.952C457.567 18.664 458.087 18.52 458.671 18.52ZM466.195 24.232C465.899 24.52 465.575 24.74 465.223 24.892C464.879 25.044 464.491 25.12 464.059 25.12C463.435 25.12 462.943 24.96 462.583 24.64C462.231 24.32 462.055 23.9 462.055 23.38C462.055 22.956 462.175 22.592 462.415 22.288C462.655 21.976 463.011 21.732 463.483 21.556C463.955 21.372 464.535 21.26 465.223 21.22L466.159 21.148C466.207 21.14 466.251 21.124 466.291 21.1C466.331 21.076 466.351 21.032 466.351 20.968V20.644C466.351 20.212 466.215 19.872 465.943 19.624C465.679 19.368 465.319 19.24 464.863 19.24C464.511 19.24 464.191 19.32 463.903 19.48C463.623 19.64 463.371 19.88 463.147 20.2C463.115 20.24 463.087 20.268 463.063 20.284C463.047 20.292 463.015 20.288 462.967 20.272L462.319 20.056C462.295 20.04 462.275 20.02 462.259 19.996C462.251 19.972 462.263 19.928 462.295 19.864C462.535 19.448 462.871 19.12 463.303 18.88C463.743 18.64 464.279 18.52 464.911 18.52C465.447 18.52 465.891 18.604 466.243 18.772C466.603 18.932 466.871 19.168 467.047 19.48C467.231 19.784 467.323 20.148 467.323 20.572V24.82C467.323 24.892 467.311 24.94 467.287 24.964C467.263 24.988 467.223 25 467.167 25H466.555C466.499 25 466.459 24.984 466.435 24.952C466.411 24.912 466.395 24.864 466.387 24.808L466.375 24.256C466.351 24.144 466.291 24.136 466.195 24.232ZM466.351 21.952C466.351 21.816 466.295 21.752 466.183 21.76L465.391 21.832C465.023 21.848 464.695 21.896 464.407 21.976C464.119 22.048 463.875 22.144 463.675 22.264C463.475 22.384 463.323 22.528 463.219 22.696C463.115 22.856 463.063 23.044 463.063 23.26C463.063 23.612 463.183 23.888 463.423 24.088C463.671 24.28 464.003 24.376 464.419 24.376C464.675 24.376 464.919 24.332 465.151 24.244C465.391 24.148 465.599 24.028 465.775 23.884C465.959 23.732 466.099 23.576 466.195 23.416C466.299 23.256 466.351 23.1 466.351 22.948V21.952ZM469.278 25C469.166 25 469.11 24.948 469.11 24.844V18.796C469.11 18.692 469.154 18.64 469.242 18.64H469.962C470.042 18.64 470.082 18.684 470.082 18.772V19.468C470.082 19.508 470.09 19.532 470.106 19.54C470.13 19.548 470.162 19.536 470.202 19.504C470.458 19.296 470.694 19.12 470.91 18.976C471.134 18.824 471.358 18.712 471.582 18.64C471.814 18.56 472.062 18.52 472.326 18.52C472.798 18.52 473.174 18.628 473.454 18.844C473.742 19.06 473.934 19.304 474.03 19.576C474.046 19.608 474.07 19.62 474.102 19.612C474.134 19.604 474.166 19.584 474.198 19.552C474.454 19.336 474.694 19.152 474.918 19C475.15 18.848 475.382 18.732 475.614 18.652C475.854 18.564 476.106 18.52 476.37 18.52C476.954 18.52 477.406 18.688 477.726 19.024C478.046 19.352 478.206 19.796 478.206 20.356V24.808C478.206 24.936 478.146 25 478.026 25H477.354C477.298 25 477.258 24.988 477.234 24.964C477.21 24.932 477.198 24.892 477.198 24.844V20.56C477.198 20.168 477.102 19.864 476.91 19.648C476.726 19.424 476.434 19.312 476.034 19.312C475.802 19.312 475.578 19.356 475.362 19.444C475.154 19.532 474.962 19.64 474.786 19.768C474.618 19.896 474.466 20.016 474.33 20.128C474.266 20.184 474.222 20.24 474.198 20.296C474.174 20.344 474.162 20.408 474.162 20.488V24.808C474.162 24.936 474.102 25 473.982 25H473.31C473.262 25 473.222 24.988 473.19 24.964C473.166 24.932 473.154 24.892 473.154 24.844V20.56C473.154 20.168 473.062 19.864 472.878 19.648C472.694 19.424 472.402 19.312 472.002 19.312C471.666 19.312 471.358 19.392 471.078 19.552C470.798 19.712 470.478 19.956 470.118 20.284V24.82C470.118 24.94 470.058 25 469.938 25H469.278ZM480.813 18.64C480.925 18.64 480.981 18.7 480.981 18.82V19.324C480.981 19.388 480.993 19.424 481.017 19.432C481.049 19.432 481.089 19.412 481.137 19.372C481.225 19.276 481.345 19.164 481.497 19.036C481.649 18.9 481.845 18.78 482.085 18.676C482.333 18.572 482.645 18.52 483.021 18.52C483.509 18.52 483.949 18.64 484.341 18.88C484.741 19.112 485.057 19.464 485.289 19.936C485.529 20.408 485.649 21.004 485.649 21.724C485.649 22.444 485.533 23.056 485.301 23.56C485.069 24.064 484.745 24.452 484.329 24.724C483.921 24.988 483.441 25.12 482.889 25.12C482.521 25.12 482.193 25.064 481.905 24.952C481.625 24.832 481.385 24.688 481.185 24.52C481.113 24.456 481.061 24.432 481.029 24.448C481.005 24.456 480.993 24.504 480.993 24.592V26.824C480.993 26.928 480.949 26.98 480.861 26.98H480.117C480.029 26.98 479.985 26.928 479.985 26.824V18.832C479.985 18.76 479.997 18.712 480.021 18.688C480.053 18.656 480.105 18.64 480.177 18.64H480.813ZM480.993 23.596C481.241 23.836 481.493 24.028 481.749 24.172C482.013 24.316 482.305 24.388 482.625 24.388C483.009 24.388 483.349 24.288 483.645 24.088C483.949 23.888 484.185 23.592 484.353 23.2C484.529 22.808 484.617 22.32 484.617 21.736C484.617 21.152 484.529 20.676 484.353 20.308C484.177 19.94 483.941 19.672 483.645 19.504C483.357 19.336 483.037 19.252 482.685 19.252C482.357 19.252 482.065 19.324 481.809 19.468C481.553 19.612 481.353 19.792 481.209 20.008C481.065 20.216 480.993 20.424 480.993 20.632V23.596ZM490.805 24.232C490.509 24.52 490.185 24.74 489.833 24.892C489.489 25.044 489.101 25.12 488.669 25.12C488.045 25.12 487.553 24.96 487.193 24.64C486.841 24.32 486.665 23.9 486.665 23.38C486.665 22.956 486.785 22.592 487.025 22.288C487.265 21.976 487.621 21.732 488.093 21.556C488.565 21.372 489.145 21.26 489.833 21.22L490.769 21.148C490.817 21.14 490.861 21.124 490.901 21.1C490.941 21.076 490.961 21.032 490.961 20.968V20.644C490.961 20.212 490.825 19.872 490.553 19.624C490.289 19.368 489.929 19.24 489.473 19.24C489.121 19.24 488.801 19.32 488.513 19.48C488.233 19.64 487.981 19.88 487.757 20.2C487.725 20.24 487.697 20.268 487.673 20.284C487.657 20.292 487.625 20.288 487.577 20.272L486.929 20.056C486.905 20.04 486.885 20.02 486.869 19.996C486.861 19.972 486.873 19.928 486.905 19.864C487.145 19.448 487.481 19.12 487.913 18.88C488.353 18.64 488.889 18.52 489.521 18.52C490.057 18.52 490.501 18.604 490.853 18.772C491.213 18.932 491.481 19.168 491.657 19.48C491.841 19.784 491.933 20.148 491.933 20.572V24.82C491.933 24.892 491.921 24.94 491.897 24.964C491.873 24.988 491.833 25 491.777 25H491.165C491.109 25 491.069 24.984 491.045 24.952C491.021 24.912 491.005 24.864 490.997 24.808L490.985 24.256C490.961 24.144 490.901 24.136 490.805 24.232ZM490.961 21.952C490.961 21.816 490.905 21.752 490.793 21.76L490.001 21.832C489.633 21.848 489.305 21.896 489.017 21.976C488.729 22.048 488.485 22.144 488.285 22.264C488.085 22.384 487.933 22.528 487.829 22.696C487.725 22.856 487.673 23.044 487.673 23.26C487.673 23.612 487.793 23.888 488.033 24.088C488.281 24.28 488.613 24.376 489.029 24.376C489.285 24.376 489.529 24.332 489.761 24.244C490.001 24.148 490.209 24.028 490.385 23.884C490.569 23.732 490.709 23.576 490.805 23.416C490.909 23.256 490.961 23.1 490.961 22.948V21.952ZM494.727 24.796C494.727 24.876 494.711 24.932 494.679 24.964C494.655 24.988 494.599 25 494.511 25H493.899C493.827 25 493.779 24.988 493.755 24.964C493.731 24.94 493.719 24.896 493.719 24.832V18.808C493.719 18.696 493.767 18.64 493.863 18.64H494.595C494.683 18.64 494.727 18.692 494.727 18.796V24.796ZM494.775 17.272C494.775 17.424 494.703 17.5 494.559 17.5H493.863C493.791 17.5 493.743 17.484 493.719 17.452C493.695 17.412 493.683 17.36 493.683 17.296V16.288C493.683 16.16 493.739 16.096 493.851 16.096H494.607C494.719 16.096 494.775 16.156 494.775 16.276V17.272ZM502.338 18.532C502.418 18.532 502.474 18.548 502.506 18.58C502.546 18.612 502.566 18.66 502.566 18.724V19.144C502.566 19.216 502.546 19.272 502.506 19.312C502.474 19.352 502.414 19.368 502.326 19.36C502.198 19.36 502.086 19.368 501.99 19.384C501.894 19.4 501.798 19.428 501.702 19.468C501.51 19.54 501.43 19.632 501.462 19.744C501.502 19.832 501.546 19.94 501.594 20.068C501.642 20.188 501.666 20.352 501.666 20.56C501.666 20.912 501.574 21.236 501.39 21.532C501.206 21.82 500.918 22.052 500.526 22.228C500.142 22.404 499.654 22.492 499.062 22.492C498.654 22.492 498.334 22.516 498.102 22.564C497.87 22.612 497.706 22.676 497.61 22.756C497.514 22.836 497.466 22.92 497.466 23.008C497.466 23.136 497.55 23.228 497.718 23.284C497.894 23.34 498.174 23.38 498.558 23.404L500.106 23.488C500.81 23.528 501.326 23.696 501.654 23.992C501.982 24.288 502.146 24.676 502.146 25.156C502.146 25.756 501.878 26.228 501.342 26.572C500.814 26.924 500.058 27.1 499.074 27.1C498.058 27.1 497.282 26.952 496.746 26.656C496.218 26.368 495.954 25.952 495.954 25.408C495.954 25.128 496.05 24.876 496.242 24.652C496.442 24.428 496.722 24.228 497.082 24.052C497.17 24.012 497.17 23.968 497.082 23.92C496.906 23.84 496.77 23.744 496.674 23.632C496.578 23.512 496.53 23.372 496.53 23.212C496.53 23.1 496.566 22.988 496.638 22.876C496.71 22.764 496.814 22.66 496.95 22.564C497.094 22.468 497.266 22.384 497.466 22.312C497.514 22.296 497.538 22.276 497.538 22.252C497.538 22.228 497.518 22.2 497.478 22.168C497.126 21.992 496.866 21.772 496.698 21.508C496.53 21.244 496.446 20.928 496.446 20.56C496.446 19.936 496.682 19.444 497.154 19.084C497.626 18.724 498.294 18.544 499.158 18.544C499.574 18.544 499.926 18.592 500.214 18.688C500.51 18.784 500.758 18.916 500.958 19.084C501.006 19.124 501.05 19.144 501.09 19.144C501.13 19.144 501.17 19.124 501.21 19.084C501.306 18.996 501.414 18.912 501.534 18.832C501.654 18.744 501.782 18.672 501.918 18.616C502.062 18.56 502.202 18.532 502.338 18.532ZM499.062 21.856C499.622 21.856 500.038 21.744 500.31 21.52C500.582 21.288 500.718 20.964 500.718 20.548C500.718 20.124 500.582 19.792 500.31 19.552C500.038 19.304 499.622 19.18 499.062 19.18C498.526 19.18 498.11 19.304 497.814 19.552C497.526 19.792 497.382 20.124 497.382 20.548C497.382 20.964 497.526 21.288 497.814 21.52C498.11 21.744 498.526 21.856 499.062 21.856ZM498.006 24.22C497.862 24.212 497.702 24.256 497.526 24.352C497.35 24.44 497.194 24.564 497.058 24.724C496.922 24.884 496.854 25.072 496.854 25.288C496.854 25.536 496.938 25.748 497.106 25.924C497.282 26.108 497.542 26.244 497.886 26.332C498.238 26.428 498.67 26.476 499.182 26.476C499.846 26.476 500.35 26.376 500.694 26.176C501.038 25.984 501.21 25.684 501.21 25.276C501.21 25.012 501.118 24.796 500.934 24.628C500.758 24.46 500.45 24.364 500.01 24.34L498.006 24.22ZM503.977 25C503.865 25 503.809 24.948 503.809 24.844V18.796C503.809 18.692 503.853 18.64 503.941 18.64H504.661C504.749 18.64 504.793 18.684 504.793 18.772V19.468C504.793 19.508 504.801 19.532 504.817 19.54C504.833 19.548 504.861 19.536 504.901 19.504C505.165 19.296 505.409 19.12 505.633 18.976C505.865 18.824 506.101 18.712 506.341 18.64C506.581 18.56 506.837 18.52 507.109 18.52C507.733 18.52 508.209 18.688 508.537 19.024C508.873 19.36 509.041 19.796 509.041 20.332V24.808C509.041 24.936 508.981 25 508.861 25H508.189C508.133 25 508.093 24.988 508.069 24.964C508.045 24.932 508.033 24.892 508.033 24.844V20.56C508.033 20.168 507.933 19.864 507.733 19.648C507.533 19.424 507.217 19.312 506.785 19.312C506.553 19.312 506.333 19.352 506.125 19.432C505.925 19.504 505.721 19.612 505.513 19.756C505.305 19.892 505.073 20.068 504.817 20.284V24.82C504.817 24.94 504.757 25 504.637 25H503.977Z" fill="black"/>
<path d="M553.229 25C553.117 25 553.061 24.948 553.061 24.844V18.796C553.061 18.692 553.105 18.64 553.193 18.64H553.913C553.993 18.64 554.033 18.684 554.033 18.772V19.468C554.033 19.508 554.041 19.532 554.057 19.54C554.081 19.548 554.113 19.536 554.153 19.504C554.409 19.296 554.645 19.12 554.861 18.976C555.085 18.824 555.309 18.712 555.533 18.64C555.765 18.56 556.013 18.52 556.277 18.52C556.749 18.52 557.125 18.628 557.405 18.844C557.693 19.06 557.885 19.304 557.981 19.576C557.997 19.608 558.021 19.62 558.053 19.612C558.085 19.604 558.117 19.584 558.149 19.552C558.405 19.336 558.645 19.152 558.869 19C559.101 18.848 559.333 18.732 559.565 18.652C559.805 18.564 560.057 18.52 560.321 18.52C560.905 18.52 561.357 18.688 561.677 19.024C561.997 19.352 562.157 19.796 562.157 20.356V24.808C562.157 24.936 562.097 25 561.977 25H561.305C561.249 25 561.209 24.988 561.185 24.964C561.161 24.932 561.149 24.892 561.149 24.844V20.56C561.149 20.168 561.053 19.864 560.861 19.648C560.677 19.424 560.385 19.312 559.985 19.312C559.753 19.312 559.529 19.356 559.313 19.444C559.105 19.532 558.913 19.64 558.737 19.768C558.569 19.896 558.417 20.016 558.281 20.128C558.217 20.184 558.173 20.24 558.149 20.296C558.125 20.344 558.113 20.408 558.113 20.488V24.808C558.113 24.936 558.053 25 557.933 25H557.261C557.213 25 557.173 24.988 557.141 24.964C557.117 24.932 557.105 24.892 557.105 24.844V20.56C557.105 20.168 557.013 19.864 556.829 19.648C556.645 19.424 556.353 19.312 555.953 19.312C555.617 19.312 555.309 19.392 555.029 19.552C554.749 19.712 554.429 19.956 554.069 20.284V24.82C554.069 24.94 554.009 25 553.889 25H553.229ZM564.608 22.216C564.608 22.608 564.7 22.968 564.884 23.296C565.076 23.616 565.328 23.872 565.64 24.064C565.96 24.256 566.316 24.352 566.708 24.352C567.108 24.352 567.464 24.272 567.776 24.112C568.088 23.944 568.356 23.692 568.58 23.356C568.612 23.324 568.636 23.308 568.652 23.308C568.676 23.3 568.708 23.304 568.748 23.32L569.252 23.572C569.324 23.612 569.332 23.668 569.276 23.74C569.06 24.06 568.82 24.324 568.556 24.532C568.3 24.732 568.012 24.88 567.692 24.976C567.372 25.072 567.012 25.12 566.612 25.12C566.02 25.12 565.496 24.984 565.04 24.712C564.584 24.44 564.224 24.06 563.96 23.572C563.696 23.084 563.564 22.52 563.564 21.88C563.564 21.184 563.696 20.588 563.96 20.092C564.232 19.588 564.596 19.2 565.052 18.928C565.516 18.656 566.032 18.52 566.6 18.52C567.184 18.52 567.692 18.648 568.124 18.904C568.556 19.16 568.892 19.532 569.132 20.02C569.372 20.508 569.492 21.096 569.492 21.784C569.492 21.84 569.484 21.896 569.468 21.952C569.46 22.008 569.408 22.036 569.312 22.036H564.716C564.684 22.036 564.656 22.056 564.632 22.096C564.616 22.128 564.608 22.168 564.608 22.216ZM568.28 21.376C568.368 21.376 568.424 21.368 568.448 21.352C568.472 21.328 568.484 21.28 568.484 21.208C568.484 20.864 568.408 20.544 568.256 20.248C568.112 19.944 567.9 19.7 567.62 19.516C567.348 19.332 567.016 19.24 566.624 19.24C566.192 19.24 565.828 19.344 565.532 19.552C565.236 19.752 565.012 20.016 564.86 20.344C564.708 20.672 564.632 21.016 564.632 21.376H568.28ZM575.432 25C575.376 25 575.332 24.988 575.3 24.964C575.276 24.932 575.264 24.888 575.264 24.832V24.328C575.264 24.264 575.248 24.228 575.216 24.22C575.192 24.212 575.156 24.232 575.108 24.28C575.02 24.36 574.892 24.468 574.724 24.604C574.564 24.74 574.36 24.86 574.112 24.964C573.864 25.068 573.568 25.12 573.224 25.12C572.72 25.12 572.268 25 571.868 24.76C571.468 24.52 571.148 24.164 570.908 23.692C570.676 23.212 570.56 22.62 570.56 21.916C570.56 21.236 570.676 20.644 570.908 20.14C571.148 19.628 571.48 19.232 571.904 18.952C572.336 18.664 572.824 18.52 573.368 18.52C573.76 18.52 574.088 18.584 574.352 18.712C574.616 18.84 574.848 18.988 575.048 19.156C575.12 19.212 575.168 19.236 575.192 19.228C575.224 19.212 575.24 19.16 575.24 19.072V16.252C575.24 16.148 575.284 16.096 575.372 16.096H576.104C576.192 16.096 576.236 16.148 576.236 16.252V24.808C576.236 24.88 576.224 24.932 576.2 24.964C576.176 24.988 576.124 25 576.044 25H575.432ZM575.228 20.044C574.98 19.796 574.728 19.604 574.472 19.468C574.216 19.332 573.928 19.264 573.608 19.264C573.224 19.264 572.876 19.364 572.564 19.564C572.26 19.756 572.02 20.048 571.844 20.44C571.676 20.832 571.592 21.312 571.592 21.88C571.592 22.464 571.68 22.944 571.856 23.32C572.032 23.688 572.268 23.96 572.564 24.136C572.86 24.304 573.184 24.388 573.536 24.388C573.864 24.388 574.152 24.312 574.4 24.16C574.656 24.008 574.856 23.82 575 23.596C575.152 23.372 575.228 23.152 575.228 22.936V20.044ZM579.1 24.796C579.1 24.876 579.084 24.932 579.052 24.964C579.028 24.988 578.972 25 578.884 25H578.272C578.2 25 578.152 24.988 578.128 24.964C578.104 24.94 578.092 24.896 578.092 24.832V18.808C578.092 18.696 578.14 18.64 578.236 18.64H578.968C579.056 18.64 579.1 18.692 579.1 18.796V24.796ZM579.148 17.272C579.148 17.424 579.076 17.5 578.932 17.5H578.236C578.164 17.5 578.116 17.484 578.092 17.452C578.068 17.412 578.056 17.36 578.056 17.296V16.288C578.056 16.16 578.112 16.096 578.224 16.096H578.98C579.092 16.096 579.148 16.156 579.148 16.276V17.272ZM583.123 24.328C583.467 24.328 583.795 24.236 584.107 24.052C584.427 23.86 584.743 23.604 585.055 23.284V18.82C585.055 18.7 585.119 18.64 585.247 18.64H585.907C586.019 18.64 586.075 18.696 586.075 18.808L586.051 24.844C586.051 24.948 586.007 25 585.919 25H585.223C585.135 25 585.091 24.956 585.091 24.868V24.16C585.091 24.12 585.083 24.096 585.067 24.088C585.051 24.08 585.023 24.092 584.983 24.124C584.543 24.5 584.151 24.76 583.807 24.904C583.471 25.048 583.135 25.12 582.799 25.12C582.431 25.12 582.103 25.044 581.815 24.892C581.527 24.74 581.299 24.528 581.131 24.256C580.963 23.976 580.879 23.652 580.879 23.284V18.832C580.879 18.704 580.939 18.64 581.059 18.64H581.731C581.835 18.64 581.887 18.696 581.887 18.808V23.02C581.887 23.412 581.995 23.728 582.211 23.968C582.435 24.208 582.739 24.328 583.123 24.328ZM588.08 25C587.968 25 587.912 24.948 587.912 24.844V18.796C587.912 18.692 587.956 18.64 588.044 18.64H588.764C588.844 18.64 588.884 18.684 588.884 18.772V19.468C588.884 19.508 588.892 19.532 588.908 19.54C588.932 19.548 588.964 19.536 589.004 19.504C589.26 19.296 589.496 19.12 589.712 18.976C589.936 18.824 590.16 18.712 590.384 18.64C590.616 18.56 590.864 18.52 591.128 18.52C591.6 18.52 591.976 18.628 592.256 18.844C592.544 19.06 592.736 19.304 592.832 19.576C592.848 19.608 592.872 19.62 592.904 19.612C592.936 19.604 592.968 19.584 593 19.552C593.256 19.336 593.496 19.152 593.72 19C593.952 18.848 594.184 18.732 594.416 18.652C594.656 18.564 594.908 18.52 595.172 18.52C595.756 18.52 596.208 18.688 596.528 19.024C596.848 19.352 597.008 19.796 597.008 20.356V24.808C597.008 24.936 596.948 25 596.828 25H596.156C596.1 25 596.06 24.988 596.036 24.964C596.012 24.932 596 24.892 596 24.844V20.56C596 20.168 595.904 19.864 595.712 19.648C595.528 19.424 595.236 19.312 594.836 19.312C594.604 19.312 594.38 19.356 594.164 19.444C593.956 19.532 593.764 19.64 593.588 19.768C593.42 19.896 593.268 20.016 593.132 20.128C593.068 20.184 593.024 20.24 593 20.296C592.976 20.344 592.964 20.408 592.964 20.488V24.808C592.964 24.936 592.904 25 592.784 25H592.112C592.064 25 592.024 24.988 591.992 24.964C591.968 24.932 591.956 24.892 591.956 24.844V20.56C591.956 20.168 591.864 19.864 591.68 19.648C591.496 19.424 591.204 19.312 590.804 19.312C590.468 19.312 590.16 19.392 589.88 19.552C589.6 19.712 589.28 19.956 588.92 20.284V24.82C588.92 24.94 588.86 25 588.74 25H588.08Z" fill="black"/>
<path d="M636.639 19.396C636.575 19.396 636.543 19.428 636.543 19.492V23.296C636.543 23.672 636.607 23.924 636.735 24.052C636.863 24.18 637.055 24.244 637.311 24.244H638.139C638.179 24.244 638.211 24.256 638.235 24.28C638.259 24.296 638.271 24.328 638.271 24.376L638.259 24.784C638.259 24.864 638.211 24.916 638.115 24.94C638.035 24.956 637.919 24.968 637.767 24.976C637.623 24.984 637.479 24.992 637.335 25C637.199 25 637.083 25 636.987 25C636.483 25 636.115 24.884 635.883 24.652C635.651 24.412 635.535 24.036 635.535 23.524V19.516C635.535 19.436 635.495 19.396 635.415 19.396H634.455C634.367 19.396 634.323 19.352 634.323 19.264V18.76C634.323 18.68 634.363 18.64 634.443 18.64H635.463C635.519 18.64 635.547 18.608 635.547 18.544L635.679 16.636C635.687 16.532 635.731 16.48 635.811 16.48H636.411C636.507 16.48 636.555 16.536 636.555 16.648V18.544C636.555 18.608 636.587 18.64 636.651 18.64H638.163C638.251 18.64 638.295 18.676 638.295 18.748V19.264C638.295 19.352 638.251 19.396 638.163 19.396H636.639ZM640.119 22.216C640.119 22.608 640.211 22.968 640.395 23.296C640.587 23.616 640.839 23.872 641.151 24.064C641.471 24.256 641.827 24.352 642.219 24.352C642.619 24.352 642.975 24.272 643.287 24.112C643.599 23.944 643.867 23.692 644.091 23.356C644.123 23.324 644.147 23.308 644.163 23.308C644.187 23.3 644.219 23.304 644.259 23.32L644.763 23.572C644.835 23.612 644.843 23.668 644.787 23.74C644.571 24.06 644.331 24.324 644.067 24.532C643.811 24.732 643.523 24.88 643.203 24.976C642.883 25.072 642.523 25.12 642.123 25.12C641.531 25.12 641.007 24.984 640.551 24.712C640.095 24.44 639.735 24.06 639.471 23.572C639.207 23.084 639.075 22.52 639.075 21.88C639.075 21.184 639.207 20.588 639.471 20.092C639.743 19.588 640.107 19.2 640.563 18.928C641.027 18.656 641.543 18.52 642.111 18.52C642.695 18.52 643.203 18.648 643.635 18.904C644.067 19.16 644.403 19.532 644.643 20.02C644.883 20.508 645.003 21.096 645.003 21.784C645.003 21.84 644.995 21.896 644.979 21.952C644.971 22.008 644.919 22.036 644.823 22.036H640.227C640.195 22.036 640.167 22.056 640.143 22.096C640.127 22.128 640.119 22.168 640.119 22.216ZM643.791 21.376C643.879 21.376 643.935 21.368 643.959 21.352C643.983 21.328 643.995 21.28 643.995 21.208C643.995 20.864 643.919 20.544 643.767 20.248C643.623 19.944 643.411 19.7 643.131 19.516C642.859 19.332 642.527 19.24 642.135 19.24C641.703 19.24 641.339 19.344 641.043 19.552C640.747 19.752 640.523 20.016 640.371 20.344C640.219 20.672 640.143 21.016 640.143 21.376H643.791ZM646.588 25C646.532 25 646.488 24.988 646.456 24.964C646.432 24.932 646.42 24.892 646.42 24.844V18.796C646.42 18.692 646.464 18.64 646.552 18.64H647.248C647.336 18.64 647.38 18.684 647.38 18.772V19.552C647.38 19.6 647.392 19.628 647.416 19.636C647.44 19.644 647.472 19.628 647.512 19.588C647.72 19.34 647.924 19.14 648.124 18.988C648.332 18.828 648.54 18.712 648.748 18.64C648.956 18.56 649.164 18.52 649.372 18.52C649.652 18.52 649.792 18.572 649.792 18.676V19.396C649.792 19.476 649.756 19.508 649.684 19.492C649.612 19.484 649.528 19.476 649.432 19.468C649.344 19.46 649.248 19.456 649.144 19.456C648.968 19.456 648.78 19.496 648.58 19.576C648.38 19.648 648.192 19.752 648.016 19.888C647.848 20.024 647.708 20.176 647.596 20.344C647.484 20.512 647.428 20.68 647.428 20.848V24.82C647.428 24.94 647.368 25 647.248 25H646.588ZM651.182 25C651.07 25 651.014 24.948 651.014 24.844V18.796C651.014 18.692 651.058 18.64 651.146 18.64H651.866C651.946 18.64 651.986 18.684 651.986 18.772V19.468C651.986 19.508 651.994 19.532 652.01 19.54C652.034 19.548 652.066 19.536 652.106 19.504C652.362 19.296 652.598 19.12 652.814 18.976C653.038 18.824 653.262 18.712 653.486 18.64C653.718 18.56 653.966 18.52 654.23 18.52C654.702 18.52 655.078 18.628 655.358 18.844C655.646 19.06 655.838 19.304 655.934 19.576C655.95 19.608 655.974 19.62 656.006 19.612C656.038 19.604 656.07 19.584 656.102 19.552C656.358 19.336 656.598 19.152 656.822 19C657.054 18.848 657.286 18.732 657.518 18.652C657.758 18.564 658.01 18.52 658.274 18.52C658.858 18.52 659.31 18.688 659.63 19.024C659.95 19.352 660.11 19.796 660.11 20.356V24.808C660.11 24.936 660.05 25 659.93 25H659.258C659.202 25 659.162 24.988 659.138 24.964C659.114 24.932 659.102 24.892 659.102 24.844V20.56C659.102 20.168 659.006 19.864 658.814 19.648C658.63 19.424 658.338 19.312 657.938 19.312C657.706 19.312 657.482 19.356 657.266 19.444C657.058 19.532 656.866 19.64 656.69 19.768C656.522 19.896 656.37 20.016 656.234 20.128C656.17 20.184 656.126 20.24 656.102 20.296C656.078 20.344 656.066 20.408 656.066 20.488V24.808C656.066 24.936 656.006 25 655.886 25H655.214C655.166 25 655.126 24.988 655.094 24.964C655.07 24.932 655.058 24.892 655.058 24.844V20.56C655.058 20.168 654.966 19.864 654.782 19.648C654.598 19.424 654.306 19.312 653.906 19.312C653.57 19.312 653.262 19.392 652.982 19.552C652.702 19.712 652.382 19.956 652.022 20.284V24.82C652.022 24.94 651.962 25 651.842 25H651.182Z" fill="black"/>
<path d="M693.855 18.52C694.271 18.52 694.635 18.588 694.947 18.724C695.267 18.852 695.539 19.032 695.763 19.264C695.995 19.488 696.187 19.736 696.339 20.008C696.387 20.104 696.367 20.164 696.279 20.188L695.619 20.344C695.563 20.368 695.511 20.344 695.463 20.272C695.303 20.04 695.143 19.852 694.983 19.708C694.831 19.564 694.667 19.456 694.491 19.384C694.315 19.304 694.123 19.264 693.915 19.264C693.507 19.264 693.147 19.368 692.835 19.576C692.531 19.776 692.295 20.068 692.127 20.452C691.959 20.836 691.875 21.292 691.875 21.82C691.875 22.356 691.959 22.816 692.127 23.2C692.303 23.584 692.543 23.876 692.847 24.076C693.159 24.276 693.523 24.376 693.939 24.376C694.323 24.376 694.655 24.28 694.935 24.088C695.215 23.896 695.471 23.616 695.703 23.248C695.727 23.208 695.747 23.188 695.763 23.188C695.787 23.18 695.819 23.184 695.859 23.2L696.375 23.392C696.431 23.416 696.447 23.468 696.423 23.548C696.303 23.756 696.163 23.956 696.003 24.148C695.843 24.34 695.655 24.508 695.439 24.652C695.231 24.796 694.995 24.912 694.731 25C694.467 25.08 694.175 25.12 693.855 25.12C693.263 25.12 692.739 24.984 692.283 24.712C691.835 24.432 691.483 24.048 691.227 23.56C690.971 23.064 690.843 22.492 690.843 21.844C690.843 21.188 690.971 20.612 691.227 20.116C691.491 19.62 691.847 19.232 692.295 18.952C692.751 18.664 693.271 18.52 693.855 18.52ZM700.301 25.12C699.701 25.12 699.169 24.984 698.705 24.712C698.249 24.432 697.893 24.048 697.637 23.56C697.389 23.064 697.265 22.496 697.265 21.856C697.265 21.192 697.393 20.612 697.649 20.116C697.913 19.612 698.273 19.22 698.729 18.94C699.185 18.66 699.713 18.52 700.313 18.52C700.921 18.52 701.449 18.664 701.897 18.952C702.353 19.232 702.705 19.624 702.953 20.128C703.209 20.624 703.337 21.196 703.337 21.844C703.337 22.484 703.209 23.052 702.953 23.548C702.697 24.036 702.341 24.42 701.885 24.7C701.437 24.98 700.909 25.12 700.301 25.12ZM700.325 24.364C700.741 24.364 701.097 24.264 701.393 24.064C701.689 23.856 701.913 23.564 702.065 23.188C702.225 22.804 702.305 22.348 702.305 21.82C702.305 21.292 702.225 20.84 702.065 20.464C701.905 20.08 701.677 19.784 701.381 19.576C701.085 19.368 700.729 19.264 700.313 19.264C699.905 19.264 699.549 19.368 699.245 19.576C698.941 19.784 698.705 20.08 698.537 20.464C698.377 20.84 698.297 21.292 698.297 21.82C698.297 22.34 698.377 22.792 698.537 23.176C698.705 23.56 698.941 23.856 699.245 24.064C699.549 24.264 699.909 24.364 700.325 24.364ZM704.988 25C704.876 25 704.82 24.948 704.82 24.844V18.796C704.82 18.692 704.864 18.64 704.952 18.64H705.672C705.76 18.64 705.804 18.684 705.804 18.772V19.468C705.804 19.508 705.812 19.532 705.828 19.54C705.844 19.548 705.872 19.536 705.912 19.504C706.176 19.296 706.42 19.12 706.644 18.976C706.876 18.824 707.112 18.712 707.352 18.64C707.592 18.56 707.848 18.52 708.12 18.52C708.744 18.52 709.22 18.688 709.548 19.024C709.884 19.36 710.052 19.796 710.052 20.332V24.808C710.052 24.936 709.992 25 709.872 25H709.2C709.144 25 709.104 24.988 709.08 24.964C709.056 24.932 709.044 24.892 709.044 24.844V20.56C709.044 20.168 708.944 19.864 708.744 19.648C708.544 19.424 708.228 19.312 707.796 19.312C707.564 19.312 707.344 19.352 707.136 19.432C706.936 19.504 706.732 19.612 706.524 19.756C706.316 19.892 706.084 20.068 705.828 20.284V24.82C705.828 24.94 705.768 25 705.648 25H704.988ZM713.356 19.396C713.292 19.396 713.26 19.428 713.26 19.492V23.296C713.26 23.672 713.324 23.924 713.452 24.052C713.58 24.18 713.772 24.244 714.028 24.244H714.856C714.896 24.244 714.928 24.256 714.952 24.28C714.976 24.296 714.988 24.328 714.988 24.376L714.976 24.784C714.976 24.864 714.928 24.916 714.832 24.94C714.752 24.956 714.636 24.968 714.484 24.976C714.34 24.984 714.196 24.992 714.052 25C713.916 25 713.8 25 713.704 25C713.2 25 712.832 24.884 712.6 24.652C712.368 24.412 712.252 24.036 712.252 23.524V19.516C712.252 19.436 712.212 19.396 712.132 19.396H711.172C711.084 19.396 711.04 19.352 711.04 19.264V18.76C711.04 18.68 711.08 18.64 711.16 18.64H712.18C712.236 18.64 712.264 18.608 712.264 18.544L712.396 16.636C712.404 16.532 712.448 16.48 712.528 16.48H713.128C713.224 16.48 713.272 16.536 713.272 16.648V18.544C713.272 18.608 713.304 18.64 713.368 18.64H714.88C714.968 18.64 715.012 18.676 715.012 18.748V19.264C715.012 19.352 714.968 19.396 714.88 19.396H713.356ZM716.836 22.216C716.836 22.608 716.928 22.968 717.112 23.296C717.304 23.616 717.556 23.872 717.868 24.064C718.188 24.256 718.544 24.352 718.936 24.352C719.336 24.352 719.692 24.272 720.004 24.112C720.316 23.944 720.584 23.692 720.808 23.356C720.84 23.324 720.864 23.308 720.88 23.308C720.904 23.3 720.936 23.304 720.976 23.32L721.48 23.572C721.552 23.612 721.56 23.668 721.504 23.74C721.288 24.06 721.048 24.324 720.784 24.532C720.528 24.732 720.24 24.88 719.92 24.976C719.6 25.072 719.24 25.12 718.84 25.12C718.248 25.12 717.724 24.984 717.268 24.712C716.812 24.44 716.452 24.06 716.188 23.572C715.924 23.084 715.792 22.52 715.792 21.88C715.792 21.184 715.924 20.588 716.188 20.092C716.46 19.588 716.824 19.2 717.28 18.928C717.744 18.656 718.26 18.52 718.828 18.52C719.412 18.52 719.92 18.648 720.352 18.904C720.784 19.16 721.12 19.532 721.36 20.02C721.6 20.508 721.72 21.096 721.72 21.784C721.72 21.84 721.712 21.896 721.696 21.952C721.688 22.008 721.636 22.036 721.54 22.036H716.944C716.912 22.036 716.884 22.056 716.86 22.096C716.844 22.128 716.836 22.168 716.836 22.216ZM720.508 21.376C720.596 21.376 720.652 21.368 720.676 21.352C720.7 21.328 720.712 21.28 720.712 21.208C720.712 20.864 720.636 20.544 720.484 20.248C720.34 19.944 720.128 19.7 719.848 19.516C719.576 19.332 719.244 19.24 718.852 19.24C718.42 19.24 718.056 19.344 717.76 19.552C717.464 19.752 717.24 20.016 717.088 20.344C716.936 20.672 716.86 21.016 716.86 21.376H720.508ZM723.305 25C723.193 25 723.137 24.948 723.137 24.844V18.796C723.137 18.692 723.181 18.64 723.269 18.64H723.989C724.077 18.64 724.121 18.684 724.121 18.772V19.468C724.121 19.508 724.129 19.532 724.145 19.54C724.161 19.548 724.189 19.536 724.229 19.504C724.493 19.296 724.737 19.12 724.961 18.976C725.193 18.824 725.429 18.712 725.669 18.64C725.909 18.56 726.165 18.52 726.437 18.52C727.061 18.52 727.537 18.688 727.865 19.024C728.201 19.36 728.369 19.796 728.369 20.332V24.808C728.369 24.936 728.309 25 728.189 25H727.517C727.461 25 727.421 24.988 727.397 24.964C727.373 24.932 727.361 24.892 727.361 24.844V20.56C727.361 20.168 727.261 19.864 727.061 19.648C726.861 19.424 726.545 19.312 726.113 19.312C725.881 19.312 725.661 19.352 725.453 19.432C725.253 19.504 725.049 19.612 724.841 19.756C724.633 19.892 724.401 20.068 724.145 20.284V24.82C724.145 24.94 724.085 25 723.965 25H723.305ZM731.672 19.396C731.608 19.396 731.576 19.428 731.576 19.492V23.296C731.576 23.672 731.64 23.924 731.768 24.052C731.896 24.18 732.088 24.244 732.344 24.244H733.172C733.212 24.244 733.244 24.256 733.268 24.28C733.292 24.296 733.304 24.328 733.304 24.376L733.292 24.784C733.292 24.864 733.244 24.916 733.148 24.94C733.068 24.956 732.952 24.968 732.8 24.976C732.656 24.984 732.512 24.992 732.368 25C732.232 25 732.116 25 732.02 25C731.516 25 731.148 24.884 730.916 24.652C730.684 24.412 730.568 24.036 730.568 23.524V19.516C730.568 19.436 730.528 19.396 730.448 19.396H729.488C729.4 19.396 729.356 19.352 729.356 19.264V18.76C729.356 18.68 729.396 18.64 729.476 18.64H730.496C730.552 18.64 730.58 18.608 730.58 18.544L730.712 16.636C730.72 16.532 730.764 16.48 730.844 16.48H731.444C731.54 16.48 731.588 16.536 731.588 16.648V18.544C731.588 18.608 731.62 18.64 731.684 18.64H733.196C733.284 18.64 733.328 18.676 733.328 18.748V19.264C733.328 19.352 733.284 19.396 733.196 19.396H731.672Z" fill="black"/>
<rect x="11" y="51" width="63" height="10" rx="5" fill="#B3B3B3" fill-opacity="0.35"/>
<rect x="95" y="51" width="63" height="10" rx="5" fill="#B3B3B3" fill-opacity="0.35"/>
<rect x="178" y="51" width="63" height="10" rx="5" fill="#B3B3B3" fill-opacity="0.35"/>
<rect x="267" y="51" width="63" height="10" rx="5" fill="#B3B3B3" fill-opacity="0.35"/>
<rect x="357" y="51" width="63" height="10" rx="5" fill="#B3B3B3" fill-opacity="0.35"/>
<rect x="451" y="51" width="63" height="10" rx="5" fill="#B3B3B3" fill-opacity="0.35"/>
<rect x="541" y="51" width="63" height="10" rx="5" fill="#B3B3B3" fill-opacity="0.35"/>
<rect x="629" y="51" width="38" height="10" rx="5" fill="#B3B3B3" fill-opacity="0.35"/>
<rect x="691" y="51" width="42" height="10" rx="5" fill="#B3B3B3" fill-opacity="0.35"/>
</svg>
